<svg width="545" height="257" viewBox="0 0 545 257" xmlns="http://www.w3.org/2000/svg"><g fill="#F7931A"><path fill-rule="evenodd" d="M128.5 0C190.738 0 242.64 44.247 254.469 103H211.179C200.296 67.674 167.397 42 128.5 42 80.727 42 42 80.727 42 128.5S80.727 215 128.5 215c39.263 0 72.415-26.16 82.98-62H254.667C243.229 212.25 191.09 257 128.5 257 57.531 257 0 199.469 0 128.5S57.531 0 128.5 0ZM128.5 84a44.5 44.5 0 100 89 44.5 44.5 0 000-89Z"/><path d="M255 103h289.531v50H255.198C256.729 145.069 257.531 136.878 257.531 128.5c0-8.731-.872-17.258-2.531-25.5ZM545 153h-28v.012C511.433 153.273 507 157.869 507 163.5s4.433 10.726 10 10.987V174h28v43h-38v-28h-.013c-.261-5.567-4.856-10-10.487-10s-10.227 4.433-10.488 10H486v28h-37v-43h28v-.013c5.567-.261 10-4.856 10-10.487s-4.433-10.227-10-10.488V153h-28v-50h96v50Z"/></g></svg>
